<svg width="320" height="103" viewBox="0 0 320 103" fill="none" xmlns="http://www.w3.org/2000/svg">
<path d="M319.996 99.8099C184.255 84.0435 141.628 103 72.0752 103C32.8605 103 11.0799 99.1494 3.3088 97.4283C1.27722 96.98 0 96.0914 0 95.1228V4.72309C0 4.01062 1.7921 3.55032 3.28486 3.88254C11.036 5.59967 32.8246 9.45822 72.0752 9.45822C148.357 9.45822 184.255 -9.4983 319.996 6.26811V99.8139V99.8099Z" fill="#FEC157"/>
<path d="M97.6135 41.784C96.6535 41.784 95.6935 41.048 95.6935 39.832C95.6935 38.616 96.6535 37.944 97.6135 37.944C98.5735 37.944 99.5655 38.616 99.5655 39.832C99.5655 41.048 98.5735 41.784 97.6135 41.784ZM99.3415 59H95.8855V44.28H99.3735L99.3415 59ZM111 44.056C113.752 44.056 116.792 45.592 116.792 49.976V59H113.336V50.488C113.336 47.832 111.48 46.968 109.976 46.968C108.504 46.968 106.68 47.832 106.68 50.488V59H103.256V44.28H106.68V45.848C107.8 44.536 109.432 44.056 111 44.056ZM127.999 46.904H124.735V54.456C124.735 56.12 125.759 56.312 126.719 56.312H127.839V59H125.343C122.623 59 121.279 57.56 121.279 55V46.904H119.327V44.28H121.279V39.768H124.735V44.28H127.999V46.904ZM141.023 44.28H144.479V59H141.023V57.464C139.903 58.776 138.271 59.256 136.703 59.256C133.951 59.256 130.943 57.72 130.943 53.304V44.28H134.367V52.792C134.367 55.448 136.255 56.312 137.727 56.312C139.231 56.312 141.023 55.448 141.023 52.792V44.28ZM150.082 41.784C149.122 41.784 148.162 41.048 148.162 39.832C148.162 38.616 149.122 37.944 150.082 37.944C151.042 37.944 152.034 38.616 152.034 39.832C152.034 41.048 151.042 41.784 150.082 41.784ZM151.81 59H148.354V44.28H151.842L151.81 59ZM163.437 46.904H160.173V54.456C160.173 56.12 161.197 56.312 162.157 56.312H163.277V59H160.781C158.061 59 156.717 57.56 156.717 55V46.904H154.765V44.28H156.717V39.768H160.173V44.28H163.437V46.904ZM168.301 41.784C167.341 41.784 166.381 41.048 166.381 39.832C166.381 38.616 167.341 37.944 168.301 37.944C169.261 37.944 170.253 38.616 170.253 39.832C170.253 41.048 169.261 41.784 168.301 41.784ZM170.029 59H166.573V44.28H170.061L170.029 59ZM178.487 59L172.695 44.28H176.247L180.151 54.328L184.119 44.28H187.703L181.847 59H178.487ZM196.259 44.024C200.579 44.024 203.331 47.256 203.331 51.64V52.6H192.259C192.611 54.904 194.243 56.344 196.419 56.344C198.467 56.344 199.651 55.416 200.259 54.552L202.627 56.28C201.347 58.136 199.107 59.288 196.419 59.288C191.939 59.288 188.931 56.024 188.931 51.64C188.931 47.256 191.811 44.024 196.259 44.024ZM196.259 46.744C194.083 46.744 192.675 48.184 192.291 50.392H200.131C199.747 48.312 198.435 46.744 196.259 46.744Z" fill="#505C44"/>
</svg>
